<svg width="712" height="668" viewBox="0 0 712 668" fill="none" xmlns="http://www.w3.org/2000/svg">
<g clip-path="url(#clip0)">
<path fill-rule="evenodd" clip-rule="evenodd" d="M417.945 501.876V419.253H335.898V501.876H263.483C259.838 505.205 256.928 509.253 254.936 513.763C252.945 518.273 251.917 523.147 251.917 528.075C251.917 533.002 252.945 537.876 254.936 542.386C256.928 546.896 259.838 550.944 263.483 554.273L349.593 656.936C357.084 664.161 367.097 668.203 377.52 668.211C387.943 668.219 397.962 664.191 405.464 656.978L491.449 554.273C495.099 550.948 498.015 546.901 500.01 542.39C502.005 537.879 503.035 533.004 503.035 528.075C503.035 523.145 502.005 518.27 500.01 513.759C498.015 509.248 495.099 505.202 491.449 501.876H417.945Z" fill="white"/>
<path fill-rule="evenodd" clip-rule="evenodd" d="M335.06 164.997V250.418H417.945V164.997H490.402C505.689 149.967 505.689 167.294 490.402 152.18L405.213 12.7352C397.788 5.50822 387.822 1.46246 377.445 1.46246C367.068 1.46246 357.102 5.50822 349.677 12.7352L261.808 152.18C246.521 167.252 246.521 149.926 261.808 164.997H335.06Z" fill="white"/>
<path fill-rule="evenodd" clip-rule="evenodd" d="M41.882 292.25H712V375.75H41.882V292.25Z" fill="white"/>
</g>
<defs>
<clipPath id="clip0">
<rect width="712" height="668" fill="white"/>
</clipPath>
</defs>
</svg>
